<svg id="Vector" xmlns="http://www.w3.org/2000/svg" viewBox="0 0 1411.98 1080.86">
  <defs>
    <style>
      .cls-1, .cls-2, .cls-3, .cls-4, .cls-5, .cls-6, .cls-7, .cls-8 {
        stroke-width: 0px;
      }

      .cls-1, .cls-3, .cls-6 {
        fill-rule: evenodd;
      }

      .cls-1, .cls-8 {
        fill: #212121;
      }

      .cls-9 {
        isolation: isolate;
      }

      .cls-2 {
        fill: #bdb6a7;
      }

      .cls-3, .cls-4 {
        fill: #f5da4a;
      }

      .cls-5 {
        fill: #bcb6a7;
      }

      .cls-6 {
        fill: #da407b;
      }

      .cls-7 {
        fill: #c0b9ab;
      }
    </style>
  </defs>
  <g id="Outline">
    <path class="cls-1" d="M625.47,712.29l2.02-15.79c-21.32-4.89-42.21-11.84-62.3-20.72l-4.5,16.1-72.71-10.49-38.14-62.92,8.65-16.5c-11.56-11.72-22.34-24.33-32.17-37.64l-9.03,13.07-66.13-46.44,6.9-77.37,11.28-10.27c-3.69-14.83-6.4-29.99-8.1-45.28l-10.68,7.5-25.42-67.72,31.91-66.7,15.13-5.71c3.21-11.34,7.05-22.6,11.46-33.64l-11.02,2.62,12.25-70.77,50.63-32.96,10.28.34c7.15-8.08,14.7-15.86,22.59-23.26l-9.52-1.89,38.35-49.21,53.49-13.34h.93c1.88,0,2.16,0,7.26,3.18,8.94-4.17,18.14-7.98,27.48-11.4l-5.21-5.41L633.51,0l55.37,6.5,1.36,7.96c5.06-.21,10.1-.32,15.06-.32s10.03.11,15.11.32l1.36-7.96,55.34-6.5,52.33,29.66-5.21,5.41c9.34,3.42,18.54,7.23,27.49,11.4l5.95-3.74,55.72,13.9,38.35,49.21-9.52,1.89c7.88,7.4,15.44,15.18,22.59,23.25l10.3-.34,50.63,32.96,12.26,70.78-11.05-2.64c4.4,11.01,8.24,22.27,11.46,33.65l15.13,5.71,31.91,66.7-25.42,67.72-10.68-7.5c-1.7,15.29-4.41,30.46-8.1,45.28l11.28,10.28,6.9,77.37-66.13,46.44-9.03-13.07c-9.82,13.31-20.6,25.92-32.17,37.64l8.65,16.5-38.14,62.92-72.65,10.49-4.52-16.13c-20.07,8.89-40.97,15.85-62.33,20.74l2.02,15.79-79.83,31-79.83-31Z"/>
  </g>
  <g>
    <path class="cls-6" d="M1043.85,359.68c0,8.3-.3,16.52-.88,24.66-1.54,21.08-4.99,41.64-10.21,61.48-10.04,38.16-26.61,73.69-48.42,105.34-12.28,17.78-26.2,34.32-41.56,49.38-26.83,26.4-58.05,48.34-92.48,64.64-23.81,11.3-49.13,19.9-75.61,25.4-22.42,4.67-45.62,7.11-69.43,7.11s-47.01-2.45-69.43-7.11c-26.45-5.5-51.77-14.1-75.58-25.37-34.42-16.32-65.67-38.26-92.5-64.66-15.36-15.06-29.28-31.6-41.56-49.38-21.81-31.65-38.38-67.18-48.42-105.34-5.22-19.85-8.68-40.4-10.21-61.48-.58-8.15-.88-16.37-.88-24.66,0-30.64,4.09-60.32,11.75-88.57,4.69-17.33,10.74-34.1,18.01-50.19,13.54-30.01,31.35-57.68,52.66-82.26,10.97-12.66,22.85-24.49,35.56-35.41,22.24-19.07,46.98-35.31,73.69-48.17,13.42-6.46,27.34-12.05,41.66-16.75,26.66-8.7,54.75-14.17,83.88-15.99,7.06-.43,14.2-.66,21.39-.66s14.35.23,21.44.66c29.1,1.82,57.2,7.31,83.83,15.99,14.32,4.69,28.25,10.29,41.66,16.75,26.71,12.86,51.45,29.1,73.69,48.17,12.71,10.92,24.59,22.75,35.56,35.41,21.28,24.59,39.09,52.23,52.63,82.24,7.29,16.09,13.34,32.89,18.03,50.21,7.67,28.25,11.75,57.93,11.75,88.57Z"/>
    <g id="Sun" class="cls-9">
      <g id="Sun-2" data-name="Sun">
        <circle class="cls-4" cx="705.26" cy="147.31" r="37.6"/>
      </g>
      <g id="Rays">
        <polygon class="cls-3" points="705.26 147.31 555.14 683.44 492.56 674.42 458.49 618.2 705.26 147.31"/>
        <polygon class="cls-3" points="705.26 147.31 415.38 566.84 359.05 527.29 365.32 457.21 705.26 147.31"/>
        <polygon class="cls-3" points="705.26 147.31 776.83 707.39 705.26 735.16 633.69 707.39 705.26 147.31"/>
        <polygon class="cls-3" points="705.26 147.31 354.19 393.72 333.33 338.18 362.53 277.12 705.26 147.31"/>
        <polygon class="cls-3" points="705.27 147.31 668.7 156.04 631.55 164.89 582.15 176.67 396.44 220.93 382.01 224.36 391.75 168.15 437.62 138.29 449.09 138.66 579.5 143.08 629.64 144.77 667.69 146.05 705.27 147.31"/>
        <path class="cls-3" d="M705.26,147.31l-232.91-46.49,29.2-37.47,50.06-12.49s6.34,3.98,6.35,3.99c5.31,3.33,141.97,89.12,147.3,92.47Z"/>
        <polygon class="cls-3" points="705.26 147.31 593.33 31.42 635.05 7.8 682.32 13.35 705.26 147.31"/>
        <polygon class="cls-3" points="705.26 147.31 855.41 683.44 917.96 674.42 952.03 618.2 705.26 147.31"/>
        <polygon class="cls-3" points="705.26 147.31 995.15 566.84 1051.47 527.29 1045.21 457.21 705.26 147.31"/>
        <polygon class="cls-3" points="705.26 147.31 1056.33 393.72 1077.2 338.18 1048 277.12 705.26 147.31"/>
        <polygon class="cls-3" points="705.26 147.31 1028.53 224.37 1018.8 168.14 972.92 138.29 705.26 147.31"/>
        <polygon class="cls-3" points="705.26 147.31 938.17 100.82 908.98 63.35 858.91 50.86 705.26 147.31"/>
        <polygon class="cls-3" points="705.26 147.31 817.19 31.42 775.5 7.8 728.23 13.35 705.26 147.31"/>
      </g>
    </g>
    <g id="Delta-svart">
      <path class="cls-8" d="M849.47,493.16c-62.42,235.35-248,177.14-293.23,4.51-43.96-167.96,75.79-248.91,75.79-248.91,0,0,26.38,10.38,57.1,19.01,17.94,5.06,213.51,24.85,160.34,225.39ZM907.9,387.01c-19.14-130.94-125.2-146.09-149.21-153.52-44.93-13.92-120.59-9.31-128.09-74.62-9.86-86.04,55.67-43.73,99.34-40.36s47.53-46.46,47.53-46.46c0,0-10.41,26.34-98.69,4.9-88.28-21.41-98.79,50.87-99.5,69.59-2.11,54.15,32.9,80.01,36.6,94.7,1.59,6.39-121.57,30.3-111.09,191.9,10.51,161.6,109.95,227.75,187.07,231.62,77.09,3.86,247.16-58.17,216.04-277.75Z"/>
    </g>
  </g>
  <g id="Below">
    <g id="Middle_circle" data-name="Middle circle">
      <circle class="cls-8" cx="705.16" cy="926.02" r="15.13"/>
    </g>
    <g id="ML">
      <line class="cls-8" x1="705.26" y1="926.09" x2="606.71" y2="864.21"/>
      <rect class="cls-8" x="653.99" y="836.97" width="4" height="116.36" transform="translate(-450.93 974.77) rotate(-57.88)"/>
    </g>
    <g id="MR">
      <line class="cls-8" x1="705.06" y1="926.09" x2="803.62" y2="864.21"/>
      <rect class="cls-8" x="696.16" y="893.15" width="116.36" height="4" transform="translate(-360.45 538) rotate(-32.12)"/>
    </g>
    <g id="RR">
      <line class="cls-8" x1="950.82" y1="888.26" x2="892.26" y2="858.28"/>
      <rect class="cls-8" x="919.54" y="840.37" width="4" height="65.79" transform="translate(-275.72 1295.65) rotate(-62.89)"/>
    </g>
    <g id="LL">
      <line class="cls-8" x1="458.49" y1="888.26" x2="517.06" y2="858.28"/>
      <rect class="cls-8" x="454.88" y="871.27" width="65.79" height="4" transform="translate(-344.29 318.12) rotate(-27.1)"/>
    </g>
  </g>
  <g id="Banner">
    <g id="Middle">
      <path class="cls-5" d="M986.95,847.23c-.06.95-.8,1.73-1.75,1.84-5.57.66-11.15,1.3-16.72,1.93-83.58,9.39-167.15,15.13-250.71,15.46-3.94.02-7.86,0-11.79,0-3.93,0-7.86.02-11.79,0-83.55-.33-167.12-6.07-250.71-15.46-5.57-.63-11.15-1.27-16.72-1.93-.95-.11-1.69-.89-1.75-1.84-2.21-32.82,1.02-65.1,5.1-96.32.17-1.04,1.15-1.85,2.19-1.64,44.13,9.12,158.91,14.61,273.67,14.08,114.75.54,229.54-4.95,273.67-14.08,1.04-.21,2.02.6,2.19,1.64,4.08,31.22,7.31,63.5,5.1,96.32Z"/>
    </g>
    <g id="LeftMiddle">
      <path class="cls-2" d="M391.92,746.19c-4.79.07-6.23-.25-11.14-.28,0,0-2.41-.07-4.43-.18-50.63-2.74-100.06-7.58-148.95-19.95-8.51-2.09-17.01-4.37-25.5-6.9-2.19-.66-8.02-2.22-12.44-3.3-.46-.09-.9.19-1,.65l-10.87,53.6-1.98,8.14c-1.4,5.74-2.37,11.59-2.89,17.47l-1.4,15.71c-.03.39.21.76.58.88.99.31,1.98.61,2.97.91,1.07.33,2.15.66,3.22.99,1.09.33,2.19.65,3.28.98,1.08.32,2.16.65,3.25.96,1.11.33,2.22.64,3.34.97,1.07.31,2.14.62,3.22.93,1.11.32,2.22.62,3.34.94,1.08.3,2.16.61,3.25.91,1.12.31,2.23.61,3.35.91,1.08.29,2.16.59,3.24.88,1.13.3,2.26.6,3.39.89,1.07.28,2.15.57,3.22.84,1.12.29,2.24.57,3.36.85,1.09.28,2.19.56,3.28.83,1.12.28,2.25.55,3.38.83,1.09.27,2.18.54,3.27.8,1.14.27,2.28.54,3.42.81,1.08.25,2.16.51,3.25.76,1.12.26,2.25.51,3.37.76,1.1.25,2.2.5,3.31.75,1.12.25,2.24.49,3.36.73,1.11.24,2.22.48,3.33.72,1.12.24,2.25.47,3.37.7,1.11.23,2.22.46,3.33.69,1.13.23,2.25.45,3.38.67,1.11.22,2.22.44,3.32.65,1.14.22,2.28.43,3.42.64,1.1.21,2.2.42,3.29.62,1.13.21,2.26.4,3.39.6,1.11.2,2.22.4,3.33.59,1.14.2,2.28.38,3.42.57,1.1.18,2.2.37,3.3.55,1.16.19,2.32.37,3.48.55,1.08.17,2.16.35,3.25.51,1.15.17,2.3.34,3.45.51,1.09.16,2.19.33,3.28.48,1.15.16,2.3.31,3.45.47,1.09.15,2.18.3,3.28.45,1.15.15,2.31.29,3.46.44,1.09.14,2.18.28,3.27.41,1.15.14,2.29.26,3.44.39,1.1.13,2.19.26,3.29.38,1.15.12,2.29.24,3.44.36,1.1.11,2.19.23,3.29.34,1.14.11,2.28.21,3.41.32,1.1.1,2.21.21,3.31.3,1.14.1,2.29.19,3.43.28,1.09.09,2.19.18,3.28.26,1.19.09,2.38.16,3.56.25,1.05.07,2.09.15,3.14.22,1.23.08,2.45.14,3.67.21,1.01.06,2.02.12,3.02.17,1.23.06,2.46.11,3.69.17,1,.04,2,.1,2.99.13,1.23.05,2.46.08,3.69.12,1,.03,1.99.07,2.99.1,1.26.03,2.51.05,3.76.08.97.02,1.93.04,2.9.06,1.41.02,2.81.02,4.22.03.81,0,1.62.02,2.43.02,1.61,0,3.21-.01,4.81-.03.61,0,1.21,0,1.82-.01,2.21-.03,4.41-.07,6.61-.13,1.08-.03,2-.83,2.17-1.9,1.82-10.95,2.46-22.13,3.28-32.49l3.7-53.88c.35-11.05,1.57-10.67-2.2-10.62Z"/>
    </g>
    <g id="LeftLeft">
      <path class="cls-7" d="M8.97,680.19c.13.24.38.56.47.69,21.81,32.18,48.74,58.67,82.63,78.01,24.56,14.03,47.77,23.65,76.21,25.93.14,0,3.56.3,3.69.24l2.54-13.15,1.02-5.37c0-.07.03-.14.04-.21,2.14-9.97,4.28-19.88,6.41-29.83,1.7-7.92,3.41-15.88,5.11-23.92,0,0,0,0,0,0,0,0,0,0,0-.01,0,0,0,.01,0,.02.02-.1.04-.2.07-.3.22-.71.8-1.31,1.54-1.33.99-.02,1.72,0,2.69-.06,3.86-.32,7.76-.46,11.61-.8,3.77-.33,5.89-1.73,6.76-4.26.87-2.53.49-6.19-.71-11.03,0,.01,0,.02.01.04,0-.02,0-.03-.01-.04,2.26,5.58,2.71,9.54,1.79,12.33-.91,2.8-3.18,4.43-6.36,5.37-1.5.44-3.21.73-5.06.91l-3.65.44,2.78,1.12,2.93,1.01c7.07,1.83,14.12,3.68,21.24,5.54,3.09.8,6.18,1.6,9.29,2.41,1.54-16.72-12.09-30.67-30.36-35.74-15.32-4.25-30.93-2.58-46.18-5.13-38.54-6.47-65.67-29.41-86.45-61.04-5.64-8.58-10.75-17.5-16.02-26.38-.67-1.14-2.28-.88-2.7.21-.06.16-.09.33-.1.52-.44,25.65,3.49,50.56,12.92,74.85.24.62.26,1.28.09,1.87-.27.99-1.04,1.82-2.12,2.09-17.65,4.47-34.35,9.72-52.03,3.46-.22-.08-.72-.31-.75-.16-.03.02-.05.05-.06.09-.07.27.31.89.7,1.63Z"/>
    </g>
    <g id="LeftRight">
      <path class="cls-2" d="M430.02,745c8.06-.53,15.88.54,23.8-.82,2.91-.5,7.64-1.67,10.81-2.78,2.37-.82,5.63-2.84,7.78-4.42,2.83-2.07,4.99-4.87,6.63-6.89.65-.8,1.92,0,1.45.93-1.29,2.53-2.71,4.04-5.26,6.43-2.52,2.36-6.73,4.62-10.58,6.18-1.06.43-2.14.77-3.24,1.05-1.41.35-3.67.9-6.15,1.47-4.04.92-8.44,1.53-8.98,1.6l.27.02c13.1,2.29,27.54,3.93,40.9,5.16,13.36,1.24,25.62,2.06,34.36,2.72-6.85-14.82-15.74-34.77-24.49-40.46-1.7-1.45-5.11-2.33-7.25-2.57-38.12-4.25-76.3-6.94-114.61-2.68-5.58.62-11.77,0-16.35,4.29-3.47,3.25-4.69,6.28-4.69,9.22,0,6.39,5.78,12.34,6.88,19.03,9.59.48,18.69.94,30.3,1.53.33.02.48-.41.2-.6-10.32-7.2-14.39-15.87-14.9-25.61,2.38,11.38,9.01,19.93,18.65,26.1.6.38,1,1.03.98,1.74h0c-.31,7.88-.68,12.85-1,20.34-.63,12.5-1.48,22.5-2.33,33.98-.16,2.19-.33,3.5-.42,7.37-.02.52.59.8.99.46,7.85-6.79,17.26-8.3,27.94-8.3h.11c2.15-18.04,4.1-35.53,6.17-53.01.27-1.29.96-1.41,2.04-1.49Z"/>
    </g>
    <g id="RightMiddle">
      <path class="cls-2" d="M1020.05,746.19c4.79.07,6.23-.25,11.14-.28,0,0,2.41-.07,4.43-.18,50.63-2.74,100.06-7.58,148.95-19.95,8.51-2.09,17.01-4.37,25.5-6.9,2.19-.66,8.02-2.22,12.44-3.3.46-.09.9.19,1,.65l10.87,53.6,1.98,8.14c1.4,5.74,2.37,11.59,2.89,17.47l1.4,15.71c.03.39-.21.76-.58.88-.99.31-1.98.61-2.97.91-1.07.33-2.15.66-3.22.99-1.09.33-2.19.65-3.28.98-1.08.32-2.16.65-3.25.96-1.11.33-2.22.64-3.34.97-1.07.31-2.14.62-3.22.93-1.11.32-2.22.62-3.34.94-1.08.3-2.16.61-3.25.91-1.12.31-2.23.61-3.35.91-1.08.29-2.16.59-3.24.88-1.13.3-2.26.6-3.39.89-1.07.28-2.15.57-3.22.84-1.12.29-2.24.57-3.36.85-1.09.28-2.19.56-3.28.83-1.12.28-2.25.55-3.38.83-1.09.27-2.18.54-3.27.8-1.14.27-2.28.54-3.42.81-1.08.25-2.16.51-3.25.76-1.12.26-2.25.51-3.37.76-1.1.25-2.2.5-3.31.75-1.12.25-2.24.49-3.36.73-1.11.24-2.22.48-3.33.72-1.12.24-2.25.47-3.37.7-1.11.23-2.22.46-3.33.69-1.13.23-2.25.45-3.38.67-1.11.22-2.22.44-3.32.65-1.14.22-2.28.43-3.42.64-1.1.21-2.2.42-3.29.62-1.13.21-2.26.4-3.39.6-1.11.2-2.22.4-3.33.59-1.14.2-2.28.38-3.42.57-1.1.18-2.2.37-3.3.55-1.16.19-2.32.37-3.48.55-1.08.17-2.16.35-3.25.51-1.15.17-2.3.34-3.45.51-1.09.16-2.19.33-3.28.48-1.15.16-2.3.31-3.45.47-1.09.15-2.18.3-3.28.45-1.15.15-2.31.29-3.46.44-1.09.14-2.18.28-3.27.41-1.15.14-2.29.26-3.44.39-1.1.13-2.19.26-3.29.38-1.15.12-2.29.24-3.44.36-1.1.11-2.19.23-3.29.34-1.14.11-2.28.21-3.41.32-1.1.1-2.21.21-3.31.3-1.14.1-2.29.19-3.43.28-1.09.09-2.19.18-3.28.26-1.19.09-2.38.16-3.56.25-1.05.07-2.09.15-3.14.22-1.23.08-2.45.14-3.67.21-1.01.06-2.02.12-3.02.17-1.23.06-2.46.11-3.69.17-1,.04-2,.1-2.99.13-1.23.05-2.46.08-3.69.12-1,.03-1.99.07-2.99.1-1.26.03-2.51.05-3.76.08-.97.02-1.93.04-2.9.06-1.41.02-2.81.02-4.22.03-.81,0-1.62.02-2.43.02-1.61,0-3.21-.01-4.81-.03-.61,0-1.21,0-1.82-.01-2.21-.03-4.41-.07-6.61-.13-1.08-.03-2-.83-2.17-1.9-1.82-10.95-2.46-22.13-3.28-32.49l-3.7-53.88c-.35-11.05-1.57-10.67,2.2-10.62Z"/>
    </g>
    <g id="RightRight">
      <path class="cls-7" d="M1403,680.19c-.13.24-.38.56-.47.69-21.81,32.18-48.74,58.67-82.63,78.01-24.56,14.03-47.77,23.65-76.21,25.93-.14,0-3.56.3-3.69.24l-2.54-13.15-1.02-5.37c0-.07-.03-.14-.04-.21-2.14-9.97-4.28-19.88-6.41-29.83-1.7-7.92-3.41-15.88-5.11-23.92,0,0,0,0,0,0,0,0,0,0,0-.01,0,0,0,.01,0,.02-.02-.1-.04-.2-.07-.3-.22-.71-.8-1.31-1.54-1.33-.99-.02-1.72,0-2.69-.06-3.86-.32-7.76-.46-11.61-.8-3.77-.33-5.89-1.73-6.76-4.26-.87-2.53-.49-6.19.71-11.03,0,.01,0,.02-.01.04,0-.02,0-.03.01-.04-2.26,5.58-2.71,9.54-1.79,12.33.91,2.8,3.18,4.43,6.36,5.37,1.5.44,3.21.73,5.06.91l3.65.44-2.78,1.12-2.93,1.01c-7.07,1.83-14.12,3.68-21.24,5.54-3.09.8-6.18,1.6-9.29,2.41-1.54-16.72,12.09-30.67,30.36-35.74,15.32-4.25,30.93-2.58,46.18-5.13,38.54-6.47,65.67-29.41,86.45-61.04,5.64-8.58,10.75-17.5,16.02-26.38.67-1.14,2.28-.88,2.7.21.06.16.09.33.1.52.44,25.65-3.49,50.56-12.92,74.85-.24.62-.26,1.28-.09,1.87.27.99,1.04,1.82,2.12,2.09,17.65,4.47,34.35,9.72,52.03,3.46.22-.08.72-.31.75-.16.03.02.05.05.06.09.07.27-.31.89-.7,1.63Z"/>
    </g>
    <g id="RightLeft">
      <path class="cls-2" d="M981.95,745c-8.06-.53-15.88.54-23.8-.82-2.91-.5-7.64-1.67-10.81-2.78-2.37-.82-5.63-2.84-7.78-4.42-2.83-2.07-4.99-4.87-6.63-6.89-.65-.8-1.92,0-1.45.93,1.29,2.53,2.71,4.04,5.26,6.43,2.52,2.36,6.73,4.62,10.58,6.18,1.06.43,2.14.77,3.24,1.05,1.41.35,3.67.9,6.15,1.47,4.04.92,8.44,1.53,8.98,1.6l-.27.02c-13.1,2.29-27.54,3.93-40.9,5.16-13.36,1.24-25.62,2.06-34.36,2.72,6.85-14.82,15.74-34.77,24.49-40.46,1.7-1.45,5.11-2.33,7.25-2.57,38.12-4.25,76.3-6.94,114.61-2.68,5.58.62,11.77,0,16.35,4.29,3.47,3.25,4.69,6.28,4.69,9.22,0,6.39-5.78,12.34-6.88,19.03-9.59.48-18.69.94-30.3,1.53-.33.02-.48-.41-.2-.6,10.32-7.2,14.39-15.87,14.9-25.61-2.38,11.38-9.01,19.93-18.65,26.1-.6.38-1,1.03-.98,1.74h0c.31,7.88.68,12.85,1,20.34.63,12.5,1.48,22.5,2.33,33.98.16,2.19.33,3.5.42,7.37.02.52-.59.8-.99.46-7.85-6.79-17.26-8.3-27.94-8.3h-.11c-2.15-18.04-4.1-35.53-6.17-53.01-.27-1.29-.96-1.41-2.04-1.49Z"/>
    </g>
    <g id="Border">
      <path class="cls-8" d="M1410.44,674.05c-1.84-2.73-5.98-2.41-10.45-2.02-12.8,1.09-25.35.04-38.34-3.99-.87-.27-1.3-1.24-.96-2.08,7.83-18.89,10.72-38.17,10.72-57.69,0-12.33-1.16-24.73-2.96-37.2l-.11-.66c-.25-1.45-2.19-1.76-2.89-.47-9.64,17.82-19.6,34.8-30.89,51.08-25.72,37.1-60.06,56.39-105.79,56.99-20.95.28-41.06,6.68-51.48,28-2.08,4.28-2.31,9.45-3.21,14.21-.11.61-.58,1.08-1.18,1.22-36.22,8.3-73.02,13.77-110.19,16.63-.17-.3-.4-.52-.37-.69,4.45-27.59,0-32.23-29.92-35.02-36.38-3.4-72.6.45-108.19,3-12.05.86-20.18,8.3-25.3,18.9-4.5,9.32-9.31,18.47-13.78,27.23-.25.49-.73.81-1.27.84-59.98,4.01-118.92,5.67-177.92,4.96-59.01.71-117.96-.96-177.92-4.96-.54-.03-1.02-.35-1.27-.84-4.47-8.76-9.28-17.91-13.78-27.23-5.12-10.6-13.26-18.04-25.3-18.9-35.58-2.55-71.8-6.39-108.19-3-29.93,2.8-34.36,7.43-29.92,35.02.03.17-.2.39-.37.69-37.17-2.87-73.97-8.33-110.19-16.63-.6-.14-1.07-.61-1.18-1.22-.9-4.75-1.13-9.93-3.21-14.21-10.42-21.32-30.53-27.72-51.48-28-45.73-.6-80.07-19.89-105.79-56.99-11.29-16.27-21.25-33.25-30.89-51.08-.7-1.29-2.64-.98-2.89.47l-.11.66c-1.8,12.47-2.96,24.87-2.96,37.2,0,19.52,2.89,38.8,10.72,57.69.34.84-.09,1.81-.96,2.08-12.99,4.03-25.54,5.07-38.34,3.99-4.47-.39-8.61-.71-10.45,2.02-3.1,4.59-.9,7.83,1.31,11.68,8.5,14.81,20.33,27.29,32.3,39.59,25.97,26.66,56.35,45.94,91.76,57.33,6.37,2.05,12.85,3.61,19.39,4.85,6.05,1.15,12.17,2.04,18.32,2.81.83.1,1.42.85,1.35,1.68-.39,4.22-.78,8.29-1.16,12.4-.41,4.22-.8,8.45-1.22,12.89-.07.72.37,1.4,1.05,1.63,66.56,22.53,134.86,32.24,204.73,32.24,6.74,0,13.52-.08,20.3-.26.74-.02,1.37-.57,1.49-1.3,1.36-7.91,2.68-15.5,3.94-23.11,2.34-14.3,7.22-18.72,22.17-18.6.85,0,1.55.69,1.55,1.54v41.89c0,1.25.8,2.36,1.99,2.75.28.1.52.16.77.18,31.73,2.86,63.18,8.18,95.11,9.33,23.99.86,47.93,3.35,71.87,5.16l38.32,1.89,65.3,2.04h27.65l65.3-2.04,38.32-1.89c23.94-1.82,47.88-4.31,71.87-5.16,31.93-1.15,63.38-6.47,95.11-9.33.25-.02.49-.08.77-.18,1.19-.39,1.99-1.5,1.99-2.75v-41.89c0-.85.7-1.54,1.55-1.54,14.94-.12,19.83,4.3,22.17,18.6,1.26,7.6,2.58,15.19,3.94,23.11.12.73.75,1.28,1.49,1.3,6.78.18,13.56.26,20.3.26,69.88,0,138.17-9.71,204.73-32.24.68-.23,1.12-.91,1.05-1.63-.42-4.44-.81-8.67-1.22-12.89-.38-4.11-.77-8.18-1.16-12.4-.07-.83.52-1.58,1.35-1.68,6.15-.77,12.27-1.66,18.32-2.81,6.54-1.25,13.02-2.81,19.39-4.85,35.41-11.39,65.79-30.67,91.76-57.33,11.97-12.3,23.79-24.77,32.3-39.59,2.21-3.85,4.41-7.09,1.31-11.68ZM92.07,758.9c-33.89-19.34-60.83-45.83-82.63-78.01-.09-.13-.34-.45-.47-.69-.4-.75-.78-1.38-.7-1.64,0-.04.03-.07.06-.09.03-.15.53.08.75.16,17.68,6.26,34.38,1.01,52.03-3.46,1.08-.28,1.85-1.11,2.13-2.1.16-.59.14-1.24-.1-1.86-9.43-24.29-13.36-49.2-12.92-74.85,0-.19.04-.37.1-.53.41-1.09,2.03-1.35,2.7-.21,5.27,8.88,10.38,17.8,16.02,26.38,20.78,31.63,47.91,54.56,86.45,61.04,15.25,2.56,30.86.89,46.18,5.13,18.27,5.07,31.9,19.02,30.36,35.74h0c-3.12-.8-6.21-1.61-9.29-2.41-7.11-1.87-14.17-3.72-21.24-5.54l-2.93-1.01-2.78-1.12,3.65-.44c1.86-.18,3.57-.47,5.06-.91,3.18-.94,5.45-2.58,6.36-5.37.91-2.79.46-6.72-1.79-12.28,1.2,4.82,1.57,8.47.7,10.99-.87,2.54-2.99,3.94-6.76,4.28-3.85.34-7.75.48-11.61.8-.97.06-1.7.04-2.69.06-.74.02-1.32.61-1.54,1.32-.04.1-.06.2-.08.3,0,0,0,0,0,0-1.71,8.04-3.42,16-5.11,23.92-2.14,9.95-4.28,19.86-6.41,29.83,0,.07-.03.14-.04.21l-1.02,5.37-2.54,13.15h0c-.13.07-3.56-.22-3.7-.23-28.44-2.29-51.65-11.91-76.21-25.93ZM390.42,810.69c-.82,10.36-1.46,21.54-3.28,32.49-.17,1.07-1.09,1.87-2.17,1.9-2.2.06-4.41.1-6.61.13-.61,0-1.21,0-1.82,0-1.61,0-3.21.03-4.81.03-.81,0-1.62,0-2.43-.02-1.4,0-2.81,0-4.22-.03-.96,0-1.93-.04-2.9-.06-1.25-.02-2.51-.04-3.76-.07-1-.03-2-.07-2.99-.1-1.23-.04-2.46-.07-3.7-.12-.99-.04-1.99-.09-2.99-.13-1.23-.06-2.46-.11-3.7-.17-1.01-.05-2.01-.12-3.02-.17-1.23-.07-2.45-.14-3.68-.21-1.05-.07-2.1-.15-3.14-.22-1.19-.08-2.38-.16-3.57-.25-1.09-.08-2.19-.17-3.29-.26-1.14-.09-2.28-.18-3.43-.28-1.1-.09-2.2-.2-3.31-.3-1.14-.11-2.28-.21-3.42-.32-1.09-.11-2.19-.22-3.29-.34-1.14-.12-2.29-.23-3.44-.35-1.09-.12-2.19-.26-3.29-.38-1.15-.13-2.29-.26-3.44-.4-1.09-.13-2.18-.27-3.28-.41-1.15-.14-2.31-.28-3.46-.43-1.09-.14-2.19-.3-3.28-.45-1.15-.15-2.31-.31-3.46-.47-1.09-.15-2.19-.32-3.28-.48-1.16-.17-2.31-.33-3.46-.51-1.08-.16-2.16-.34-3.25-.51-1.16-.18-2.32-.36-3.48-.55-1.11-.18-2.21-.37-3.31-.55l-3.42-.57c-1.11-.2-2.22-.4-3.33-.59-1.14-.21-2.27-.4-3.4-.61-1.1-.2-2.2-.41-3.3-.62-1.14-.21-2.28-.42-3.42-.64-1.11-.21-2.22-.44-3.33-.65-1.13-.23-2.26-.44-3.38-.67-1.11-.23-2.22-.46-3.33-.69-1.13-.23-2.26-.46-3.38-.7-1.11-.24-2.22-.48-3.33-.72-1.12-.24-2.24-.48-3.36-.73-1.11-.24-2.21-.5-3.31-.75-1.13-.25-2.26-.5-3.38-.76-1.09-.25-2.17-.51-3.25-.76-1.14-.27-2.28-.54-3.42-.81-1.09-.26-2.18-.53-3.27-.8-1.13-.27-2.26-.55-3.38-.83-1.1-.27-2.19-.55-3.29-.83-1.12-.28-2.24-.56-3.36-.85-1.07-.28-2.15-.56-3.22-.85-1.14-.29-2.27-.59-3.4-.89-1.08-.29-2.16-.58-3.24-.88-1.12-.3-2.24-.6-3.36-.91-1.08-.3-2.17-.61-3.25-.91-1.11-.31-2.23-.62-3.34-.94-1.07-.3-2.15-.61-3.22-.92-1.11-.33-2.23-.64-3.34-.97-1.08-.32-2.17-.64-3.25-.97-1.09-.32-2.19-.65-3.28-.98-1.08-.32-2.16-.65-3.23-.98-.99-.3-1.99-.61-2.98-.91-.21-.07-.43-.13-.64-.2l.06-.68,1.4-15.71c.52-5.88,1.49-11.73,2.89-17.47l1.98-8.14,11.04-54.45c.27.06.54.13.83.2,4.43,1.08,10.25,2.64,12.44,3.3,8.49,2.52,16.99,4.8,25.5,6.89,48.97,12.01,98.36,17.21,148.94,19.95,2.02.11,4.43.18,4.43.18,4.9.03,6.34.35,11.14.28,3.77-.05,2.55-.43,2.2,10.62l-3.7,53.88ZM421.7,799.5c-10.68,0-20.09,1.51-27.94,8.3-.4.34-1.01.06-.99-.46.09-3.88.26-5.18.42-7.37.85-11.49,1.7-21.49,2.33-33.98.32-7.49.69-12.46,1-20.33h0c.02-.72-.38-1.37-.98-1.75-9.64-6.17-16.27-14.72-18.65-26.1.51,9.74,4.59,18.41,14.9,25.61.28.19.13.62-.2.6-11.61-.59-20.71-1.05-30.3-1.53-1.1-6.69-6.88-12.64-6.88-19.03,0-2.94,1.23-5.97,4.69-9.22,4.59-4.3,10.77-3.67,16.35-4.29,38.31-4.27,76.49-1.57,114.61,2.68,2.14.24,5.55,1.12,7.25,2.57,8.75,5.68,17.64,25.63,24.49,40.46-8.74-.66-21.01-1.48-34.36-2.72-13.36-1.24-27.8-2.88-40.9-5.16l-.27-.02c.54-.07,4.94-.68,8.98-1.6,2.49-.57,4.74-1.12,6.15-1.47,1.1-.28,2.18-.62,3.24-1.05,3.85-1.57,8.06-3.83,10.58-6.18,2.56-2.4,3.98-3.91,5.26-6.43.47-.92-.8-1.73-1.45-.93-1.64,2.02-3.81,4.82-6.63,6.89-2.15,1.58-5.41,3.6-7.78,4.42-3.17,1.11-7.9,2.28-10.81,2.78-7.92,1.36-15.74.29-23.8.82-1.08.08-1.77.2-2.04,1.49-2.08,17.48-4.03,34.97-6.17,53.01h-.11ZM986.95,847.23c-.06.95-.8,1.73-1.75,1.84-5.57.66-11.15,1.3-16.72,1.93-83.58,9.39-167.15,15.13-250.71,15.46-3.94.02-7.86,0-11.79,0-3.93,0-7.86.02-11.79,0-83.55-.33-167.12-6.07-250.71-15.46-5.57-.63-11.15-1.27-16.72-1.93-.95-.11-1.69-.89-1.75-1.84-2.21-32.82,1.02-65.1,5.1-96.32.14-1.04,1.15-1.85,2.19-1.64,44.13,9.12,158.91,14.61,273.67,14.08,114.75.54,229.54-4.95,273.67-14.08,1.04-.21,2.05.6,2.19,1.64,4.08,31.22,7.31,63.5,5.1,96.32ZM1018.22,807.81c-7.85-6.79-17.26-8.3-27.94-8.3h-.11c-2.15-18.04-4.1-35.53-6.17-53.01-.27-1.29-.96-1.41-2.04-1.49-8.06-.53-15.88.54-23.8-.82-2.91-.5-7.64-1.67-10.81-2.78-2.37-.82-5.63-2.84-7.78-4.42-2.83-2.07-4.99-4.87-6.63-6.89-.65-.8-1.92,0-1.45.93,1.29,2.53,2.71,4.04,5.26,6.43,2.52,2.36,6.73,4.62,10.58,6.18,1.06.43,2.14.77,3.24,1.05,1.41.35,3.67.9,6.15,1.47,4.04.92,8.44,1.53,8.98,1.6l-.27.02c-13.1,2.29-27.54,3.93-40.9,5.16-13.36,1.24-25.62,2.06-34.36,2.72,6.85-14.82,15.74-34.77,24.49-40.46,1.7-1.45,5.11-2.33,7.25-2.57,38.12-4.25,76.3-6.94,114.61-2.68,5.58.62,11.77,0,16.35,4.29,3.47,3.25,4.7,6.28,4.7,9.22,0,6.39-5.78,12.34-6.88,19.03-9.59.48-18.69.94-30.3,1.53-.33.02-.48-.41-.2-.6,10.32-7.2,14.39-15.87,14.9-25.61-2.38,11.38-9.01,19.93-18.65,26.1-.6.38-1,1.03-.98,1.74h0c.31,7.88.68,12.85,1,20.34.63,12.5,1.48,22.5,2.33,33.98.16,2.19.33,3.5.42,7.37.02.52-.59.8-.99.46ZM1240.04,812.05c-.99.3-1.98.61-2.97.91-1.08.33-2.15.66-3.23.98-1.09.33-2.19.66-3.29.98-1.08.33-2.16.65-3.25.97-1.11.33-2.22.64-3.34.97-1.07.31-2.14.62-3.22.92-1.11.32-2.22.63-3.34.94-1.08.3-2.16.61-3.24.91-1.12.31-2.24.61-3.36.91-1.08.3-2.16.59-3.24.88-1.13.3-2.27.6-3.4.89-1.08.29-2.15.57-3.23.85-1.12.29-2.24.57-3.36.85-1.09.28-2.19.56-3.28.83-1.13.28-2.25.56-3.38.83-1.09.27-2.18.54-3.27.8-1.14.27-2.28.54-3.42.81-1.09.25-2.17.51-3.25.76-1.13.26-2.26.51-3.38.76-1.1.25-2.21.51-3.31.75-1.12.25-2.24.49-3.36.73-1.11.24-2.22.48-3.33.72-1.13.24-2.25.47-3.38.7-1.11.23-2.22.46-3.33.69-1.13.23-2.26.44-3.38.67-1.11.21-2.22.44-3.33.65-1.14.22-2.28.43-3.42.64-1.1.21-2.2.42-3.3.62-1.13.21-2.27.4-3.4.61-1.11.19-2.22.39-3.33.59-1.14.19-2.29.38-3.43.57-1.1.18-2.2.37-3.3.55-1.16.19-2.32.37-3.49.55-1.08.17-2.16.35-3.25.51-1.15.18-2.3.34-3.45.51-1.1.16-2.19.33-3.29.48-1.15.16-2.3.32-3.45.47-1.1.15-2.19.31-3.28.45-1.16.15-2.31.29-3.47.43-1.09.14-2.18.28-3.27.41-1.15.14-2.3.27-3.45.4-1.09.12-2.19.26-3.29.38-1.14.12-2.29.23-3.44.35-1.09.12-2.19.23-3.29.34-1.14.11-2.28.21-3.42.32-1.1.1-2.2.21-3.31.3-1.14.1-2.28.19-3.43.28-1.09.09-2.19.18-3.28.26-1.19.09-2.38.17-3.57.25-1.05.07-2.1.15-3.14.22-1.23.07-2.46.14-3.68.21-1.01.05-2.02.12-3.03.17-1.23.06-2.46.11-3.69.17-1,.04-2,.09-3,.13-1.23.05-2.46.08-3.69.12-1,.03-2,.07-2.99.1-1.26.03-2.51.05-3.77.07-.96.02-1.93.05-2.9.06-1.41.02-2.81.02-4.22.03-.81,0-1.62.02-2.43.02-1.6,0-3.21-.02-4.8-.03-.61,0-1.22,0-1.82,0-2.21-.03-4.42-.07-6.61-.13-1.08-.03-2-.83-2.17-1.9-1.82-10.95-2.46-22.13-3.28-32.49l-3.7-53.88c-.35-11.05-1.57-10.67,2.2-10.62,4.79.07,6.23-.25,11.14-.28,0,0,2.41-.07,4.43-.18,50.59-2.74,99.97-7.94,148.94-19.95,8.51-2.09,17.01-4.38,25.5-6.89,2.19-.66,8.01-2.22,12.44-3.3.28-.07.56-.14.83-.2l11.04,54.45,1.98,8.14c1.4,5.74,2.37,11.59,2.89,17.47l1.39,15.71.07.68c-.22.07-.43.13-.65.2ZM1403.01,680.2c-.13.24-.38.56-.47.69-21.81,32.18-48.74,58.67-82.63,78.01-24.56,14.03-47.77,23.65-76.21,25.93-.14,0-3.57.3-3.7.24h0s-2.53-13.16-2.53-13.16l-1.02-5.37c0-.07-.03-.14-.04-.21-2.14-9.97-4.28-19.88-6.41-29.83-1.7-7.92-3.41-15.88-5.11-23.92h0v.02h0c0-.11-.04-.21-.07-.31-.23-.71-.8-1.3-1.54-1.32-.99-.02-1.72,0-2.69-.06-3.86-.32-7.76-.46-11.61-.8-3.79-.34-5.9-1.74-6.77-4.28-.87-2.53-.49-6.18.72-11.03,0,0,0,.02-.02.04-2.25,5.55-2.69,9.49-1.78,12.28.91,2.8,3.18,4.44,6.36,5.37,1.5.44,3.21.73,5.06.91l3.65.44-2.78,1.12-2.93,1.01c-7.08,1.83-14.12,3.68-21.24,5.54-3.09.8-6.17,1.61-9.29,2.42h0c-1.55-16.73,12.09-30.68,30.36-35.75,15.32-4.25,30.93-2.58,46.18-5.13,38.54-6.47,65.67-29.41,86.45-61.04,5.64-8.58,10.75-17.5,16.02-26.38.67-1.14,2.28-.88,2.7.21.06.16.09.34.1.53.44,25.65-3.49,50.56-12.92,74.85-.24.62-.26,1.27-.1,1.86.27.99,1.04,1.82,2.13,2.1,17.65,4.47,34.35,9.72,52.04,3.46.22-.08.72-.31.75-.16.03.02.04.05.06.09.08.26-.31.89-.7,1.64Z"/>
    </g>
  </g>
  <g id="CirclesL">
    <circle class="cls-8" cx="194.47" cy="229.45" r="15.13"/>
    <circle class="cls-8" cx="318.23" cy="162.44" r="15.13"/>
    <circle class="cls-8" cx="263.58" cy="266.74" r="15.13"/>
    <circle class="cls-8" cx="172.79" cy="453.07" r="15.13"/>
    <circle class="cls-8" cx="278.71" cy="506.27" r="15.13"/>
    <circle class="cls-8" cx="392.56" cy="651.32" r="15.13"/>
    <circle class="cls-8" cx="230.74" cy="627.81" r="15.13"/>
    <circle class="cls-8" cx="193.07" cy="545.71" r="15.13"/>
    <circle class="cls-8" cx="146.07" cy="645.19" r="15.13"/>
    <circle class="cls-8" cx="458.49" cy="890.63" r="15.13"/>
  </g>
  <g id="StemL">
    <g>
      <line class="cls-8" x1="471.09" y1="738.7" x2="392.56" y2="651.32"/>
      <rect class="cls-8" x="429.83" y="636.27" width="4" height="117.48" transform="translate(-353.92 466.71) rotate(-41.94)"/>
    </g>
    <g>
      <line class="cls-8" x1="278.71" y1="506.27" x2="392.56" y2="651.32"/>
      <rect class="cls-8" x="333.64" y="486.6" width="4" height="184.4" transform="translate(-285.76 330.75) rotate(-38.13)"/>
    </g>
    <g>
      <line class="cls-8" x1="230.74" y1="627.81" x2="392.56" y2="651.32"/>
      <rect class="cls-8" x="309.65" y="557.8" width="4" height="163.53" transform="translate(-366.08 856.01) rotate(-81.73)"/>
    </g>
    <g>
      <line class="cls-8" x1="193.07" y1="545.71" x2="232.47" y2="628.06"/>
      <rect class="cls-8" x="210.77" y="541.24" width="4" height="91.29" transform="translate(-232.48 149.33) rotate(-25.57)"/>
    </g>
    <g>
      <line class="cls-8" x1="146.07" y1="645.19" x2="232.47" y2="628.06"/>
      <rect class="cls-8" x="145.23" y="634.62" width="88.09" height="4" transform="translate(-120.25 48.99) rotate(-11.22)"/>
    </g>
    <g>
      <line class="cls-8" x1="172.79" y1="453.07" x2="278.71" y2="506.27"/>
      <rect class="cls-8" x="223.75" y="420.41" width="4" height="118.53" transform="translate(-304.22 466.11) rotate(-63.33)"/>
    </g>
    <g>
      <line class="cls-8" x1="194.47" y1="229.45" x2="263.58" y2="266.74"/>
      <rect class="cls-8" x="227.02" y="208.83" width="4" height="78.53" transform="translate(-98.07 331.84) rotate(-61.65)"/>
    </g>
    <g>
      <line class="cls-8" x1="318.23" y1="162.44" x2="263.58" y2="266.74"/>
      <rect class="cls-8" x="232.03" y="212.59" width="117.75" height="4" transform="translate(-34.19 372.67) rotate(-62.35)"/>
    </g>
    <g>
      <line class="cls-8" x1="278.71" y1="506.27" x2="263.58" y2="266.74"/>
      <rect class="cls-8" x="269.14" y="266.51" width="4" height="240" transform="translate(-23.83 17.86) rotate(-3.61)"/>
    </g>
  </g>
  <g id="CirclesR">
    <circle class="cls-8" cx="950.82" cy="890.63" r="15.13"/>
    <circle class="cls-8" cx="1217.67" cy="229.45" r="15.13"/>
    <circle class="cls-8" cx="1093.91" cy="162.44" r="15.13"/>
    <circle class="cls-8" cx="1148.56" cy="266.74" r="15.13"/>
    <circle class="cls-8" cx="1239.35" cy="453.07" r="15.13"/>
    <circle class="cls-8" cx="1133.43" cy="506.27" r="15.13"/>
    <circle class="cls-8" cx="1019.57" cy="651.32" r="15.13"/>
    <circle class="cls-8" cx="1181.4" cy="627.81" r="15.13"/>
    <circle class="cls-8" cx="1219.07" cy="545.71" r="15.13"/>
    <circle class="cls-8" cx="1266.07" cy="645.19" r="15.13"/>
  </g>
  <g id="StemR">
    <g>
      <line class="cls-8" x1="941.05" y1="738.7" x2="1019.57" y2="651.32"/>
      <rect class="cls-8" x="921.57" y="693.01" width="117.48" height="4" transform="translate(-191.92 959.46) rotate(-48.05)"/>
    </g>
    <g>
      <line class="cls-8" x1="1133.43" y1="506.27" x2="1019.57" y2="651.32"/>
      <rect class="cls-8" x="984.3" y="576.79" width="184.4" height="4" transform="translate(-43.55 1068.01) rotate(-51.86)"/>
    </g>
    <g>
      <line class="cls-8" x1="1181.4" y1="627.81" x2="1019.57" y2="651.32"/>
      <rect class="cls-8" x="1018.72" y="637.56" width="163.53" height="4" transform="translate(-80.41 164.59) rotate(-8.25)"/>
    </g>
    <g>
      <line class="cls-8" x1="1219.07" y1="545.71" x2="1179.66" y2="628.06"/>
      <rect class="cls-8" x="1153.72" y="584.88" width="91.29" height="4" transform="translate(152.21 1415.36) rotate(-64.42)"/>
    </g>
    <g>
      <line class="cls-8" x1="1266.07" y1="645.19" x2="1179.66" y2="628.06"/>
      <rect class="cls-8" x="1220.87" y="592.58" width="4" height="88.09" transform="translate(360.56 1712.32) rotate(-78.78)"/>
    </g>
    <g>
      <line class="cls-8" x1="1239.35" y1="453.07" x2="1133.43" y2="506.27"/>
      <rect class="cls-8" x="1127.13" y="477.67" width="118.53" height="4" transform="translate(-89.09 583.44) rotate(-26.67)"/>
    </g>
    <g>
      <line class="cls-8" x1="1217.67" y1="229.45" x2="1148.56" y2="266.74"/>
      <rect class="cls-8" x="1143.85" y="246.1" width="78.53" height="4" transform="translate(24.15 591.78) rotate(-28.36)"/>
    </g>
    <g>
      <line class="cls-8" x1="1093.91" y1="162.44" x2="1148.56" y2="266.74"/>
      <rect class="cls-8" x="1119.24" y="155.72" width="4" height="117.75" transform="translate(28.49 544.94) rotate(-27.66)"/>
    </g>
    <g>
      <line class="cls-8" x1="1133.43" y1="506.27" x2="1148.56" y2="266.74"/>
      <rect class="cls-8" x="1021" y="384.51" width="240" height="4" transform="translate(683.39 1500.89) rotate(-86.39)"/>
    </g>
  </g>
  <g id="scientiam_computatoriam" data-name="scientiam computatoriam">
    <g>
      <path class="cls-8" d="M454.73,803.21c-.21.34-.52.51-.92.49-.24-.01-.51-.11-.81-.3-.3-.19-.66-.4-1.1-.64-.43-.24-.95-.46-1.56-.67-.6-.21-1.33-.34-2.16-.38-.73-.03-1.38.03-1.97.19-.59.16-1.1.39-1.52.69-.43.3-.76.66-.99,1.07-.24.42-.37.87-.39,1.37-.03.62.13,1.15.47,1.59.34.43.81.82,1.39,1.15.58.33,1.25.63,2,.9.75.27,1.51.55,2.3.85.79.3,1.55.63,2.3.98.74.35,1.4.78,1.98,1.29.58.51,1.03,1.12,1.36,1.83.33.71.48,1.56.43,2.53-.05,1.12-.3,2.15-.74,3.09-.45.94-1.08,1.73-1.9,2.4-.82.66-1.82,1.17-2.99,1.52-1.17.35-2.5.49-4.01.42-1.72-.08-3.26-.43-4.62-1.04-1.37-.62-2.51-1.38-3.44-2.29.44-.63.66-.95,1.1-1.59.14-.2.3-.36.48-.46.18-.1.41-.15.69-.14.29.01.59.14.91.38.31.24.69.51,1.14.8.45.29,1,.57,1.65.82.65.26,1.47.4,2.46.45.84.04,1.58-.04,2.22-.22s1.18-.46,1.62-.81c.44-.35.77-.76.99-1.23.22-.47.35-.98.37-1.52.03-.67-.13-1.24-.47-1.69-.34-.46-.81-.85-1.39-1.19-.58-.34-1.25-.64-2.01-.91-.76-.27-1.53-.55-2.32-.84s-1.56-.62-2.31-.99c-.75-.36-1.41-.81-1.99-1.33-.57-.52-1.03-1.16-1.35-1.91-.33-.75-.47-1.64-.42-2.68.04-.93.28-1.81.71-2.65.43-.84,1.03-1.56,1.8-2.18.77-.61,1.71-1.09,2.8-1.42,1.1-.33,2.34-.47,3.72-.41,1.61.07,3.04.39,4.3.95,1.26.56,2.33,1.3,3.23,2.23-.41.61-.62.91-1.04,1.52Z"/>
      <path class="cls-8" d="M478.44,804.52c-.14.17-.27.3-.4.39-.13.09-.31.13-.54.12-.24,0-.5-.12-.79-.33-.28-.21-.63-.45-1.05-.7-.42-.26-.93-.5-1.54-.72-.61-.23-1.37-.36-2.27-.4-1.21-.05-2.28.12-3.22.5-.94.39-1.73.97-2.39,1.74-.65.77-1.16,1.72-1.53,2.85-.36,1.12-.57,2.39-.63,3.8-.06,1.47.05,2.79.34,3.95.29,1.16.73,2.14,1.32,2.94.59.8,1.32,1.43,2.18,1.87s1.85.69,2.95.74c1.05.04,1.92-.05,2.61-.27.69-.22,1.26-.47,1.72-.76.46-.29.84-.55,1.15-.78.31-.24.61-.35.9-.34.36.01.62.16.81.44.46.64.69.97,1.15,1.61-.56.64-1.19,1.17-1.89,1.61-.7.44-1.45.8-2.24,1.08-.8.28-1.63.48-2.49.59-.86.11-1.74.14-2.63.11-1.54-.06-2.95-.4-4.25-1.02-1.29-.62-2.4-1.48-3.33-2.59-.92-1.11-1.63-2.45-2.11-4.03-.48-1.58-.68-3.36-.59-5.35.08-1.81.41-3.47.98-4.99.57-1.52,1.37-2.81,2.4-3.88,1.02-1.07,2.26-1.89,3.71-2.45,1.45-.56,3.1-.81,4.96-.73,1.72.07,3.23.41,4.52,1.02,1.29.61,2.42,1.43,3.4,2.48-.48.6-.72.9-1.2,1.49Z"/>
      <path class="cls-8" d="M490.41,793c-.02.42-.12.8-.3,1.16-.18.35-.42.67-.71.94-.29.27-.63.48-1.01.62-.39.15-.79.21-1.2.19-.42-.02-.81-.11-1.16-.29-.36-.17-.67-.41-.93-.7-.26-.29-.47-.62-.61-.99-.15-.37-.21-.76-.2-1.18.02-.42.11-.81.29-1.18.18-.37.4-.69.69-.96.28-.27.61-.48.98-.62.37-.15.76-.21,1.18-.19s.81.11,1.19.29c.37.17.69.41.96.7.27.29.48.63.64,1.01.15.38.22.78.21,1.2ZM489.2,800.61c-.37,9.74-.56,14.61-.93,24.35-1.73-.07-2.59-.1-4.32-.17.38-9.74.57-14.61.95-24.35,1.72.07,2.58.1,4.3.17Z"/>
      <path class="cls-8" d="M515.42,822.51c-.56.62-1.21,1.16-1.97,1.61-.76.45-1.57.81-2.43,1.08-.86.28-1.75.47-2.66.6-.91.12-1.81.17-2.7.13-1.7-.06-3.25-.4-4.67-1.02-1.41-.62-2.62-1.5-3.62-2.63-1-1.14-1.77-2.52-2.29-4.16-.52-1.64-.74-3.51-.67-5.61.06-1.7.38-3.27.96-4.73.58-1.45,1.38-2.7,2.4-3.75,1.02-1.05,2.25-1.85,3.69-2.42,1.44-.57,3.05-.82,4.82-.75,1.47.05,2.81.34,4.05.88,1.23.53,2.29,1.27,3.17,2.23.88.95,1.56,2.11,2.03,3.48.47,1.37.68,2.92.62,4.65-.02.67-.11,1.12-.26,1.34-.15.22-.43.32-.84.31-6.56-.22-9.84-.33-16.4-.57,0,1.54.16,2.89.5,4.04.34,1.15.83,2.12,1.49,2.91s1.44,1.38,2.36,1.79c.92.41,1.97.63,3.13.68,1.08.04,2.02-.05,2.81-.28.79-.22,1.48-.47,2.05-.74.58-.27,1.06-.52,1.45-.76s.72-.35.99-.34c.36.01.63.16.81.44.46.64.7.96,1.16,1.6ZM512.32,810.98c.03-.99-.08-1.91-.33-2.74-.25-.83-.64-1.56-1.16-2.18-.52-.62-1.16-1.11-1.92-1.46-.76-.36-1.63-.55-2.62-.58-2.06-.07-3.72.47-4.96,1.62-1.24,1.15-2.05,2.78-2.42,4.88,5.36.2,8.05.29,13.41.47Z"/>
      <path class="cls-8" d="M525.73,805.42c.55-.58,1.13-1.1,1.74-1.56.61-.46,1.26-.86,1.94-1.18.68-.32,1.4-.57,2.15-.73.76-.16,1.57-.23,2.44-.2,1.34.04,2.51.3,3.52.77,1.01.47,1.85,1.12,2.51,1.95.66.83,1.15,1.82,1.48,2.97.32,1.15.46,2.41.42,3.79-.18,6.2-.27,9.3-.45,15.51-1.74-.05-2.61-.08-4.35-.13.18-6.2.28-9.3.46-15.51.05-1.84-.33-3.29-1.14-4.33-.82-1.04-2.09-1.59-3.81-1.64-1.27-.04-2.47.23-3.6.8-1.12.58-2.17,1.37-3.14,2.38-.23,7.17-.34,10.76-.57,17.93-1.74-.06-2.61-.08-4.34-.14.32-9.74.47-14.61.79-24.35,1.03.03,1.55.05,2.59.08.61.02.98.33,1.11.93.1,1.06.15,1.59.25,2.65Z"/>
      <path class="cls-8" d="M570.56,827.5c-1.73-.04-2.59-.06-4.32-.1.2-8.31.3-12.47.51-20.78-5.05-.12-7.58-.19-12.63-.32-.16,5.85-.23,8.77-.39,14.62-.03,1.03.2,1.79.69,2.3.49.51,1.13.78,1.92.8.45.01.85-.04,1.18-.15s.63-.24.87-.37c.25-.14.46-.26.63-.38.17-.12.32-.17.45-.17.23,0,.42.15.6.42.48.83.73,1.25,1.21,2.08-.76.67-1.67,1.19-2.73,1.55-1.06.37-2.15.53-3.27.5-1.94-.05-3.42-.63-4.44-1.73-1.01-1.1-1.49-2.66-1.44-4.68.16-5.96.25-8.94.41-14.91-1.18-.03-1.77-.05-2.95-.08-.26,0-.47-.09-.65-.25s-.25-.4-.25-.72c.02-.68.03-1.02.05-1.71,1.61-.17,2.42-.25,4.03-.42.48-2.99.72-4.48,1.2-7.47.05-.24.17-.43.34-.58.17-.15.4-.22.67-.21.87.02,1.3.04,2.17.06-.09,3.36-.13,5.03-.22,8.39,6.77.18,10.15.27,16.92.43-.23,9.55-.34,14.33-.57,23.88ZM572.38,795.35c0,.42-.1.8-.28,1.16-.18.36-.41.67-.7.93-.29.27-.62.47-.99.63s-.77.22-1.19.21c-.42-.01-.81-.1-1.17-.27-.36-.17-.67-.39-.94-.67s-.48-.6-.63-.97c-.15-.36-.22-.75-.21-1.17.01-.42.1-.81.27-1.18s.4-.7.68-.97c.28-.27.6-.49.97-.64.37-.15.76-.22,1.18-.21.42.01.81.1,1.18.27.37.17.69.4.96.68.27.29.49.62.65,1s.24.78.23,1.2Z"/>
      <path class="cls-8" d="M577.49,806.73c1.38-1.27,2.86-2.21,4.44-2.81,1.58-.61,3.32-.89,5.22-.85,1.37.03,2.58.28,3.64.75,1.06.47,1.94,1.11,2.65,1.93.71.82,1.24,1.8,1.59,2.94s.51,2.4.48,3.76c-.12,6.23-.18,9.35-.3,15.58-.77-.01-1.15-.02-1.92-.04-.42,0-.74-.08-.97-.22-.22-.14-.4-.41-.52-.82-.18-.93-.26-1.39-.44-2.32-.66.58-1.3,1.09-1.92,1.54-.62.44-1.28.82-1.97,1.11-.69.3-1.42.52-2.19.68-.77.15-1.63.22-2.57.2-.96-.02-1.85-.17-2.69-.45-.84-.28-1.56-.7-2.17-1.24-.61-.54-1.09-1.22-1.44-2.04-.35-.82-.51-1.78-.48-2.89.02-.96.31-1.88.86-2.76.55-.88,1.44-1.65,2.65-2.31,1.21-.66,2.78-1.19,4.71-1.59,1.93-.4,4.29-.6,7.09-.61.02-.76.02-1.14.04-1.9.04-1.89-.34-3.33-1.15-4.32-.8-.99-1.99-1.5-3.57-1.53-1.06-.02-1.96.09-2.68.34-.72.25-1.35.53-1.88.85-.53.32-.99.6-1.37.86-.38.26-.76.38-1.13.37-.29,0-.54-.09-.75-.25-.21-.16-.38-.35-.52-.58-.3-.56-.45-.83-.74-1.39ZM591.2,816.98c-1.99.02-3.68.15-5.09.37-1.4.22-2.55.52-3.44.9-.89.38-1.54.84-1.95,1.38-.41.54-.62,1.14-.63,1.81-.01.64.08,1.2.28,1.67.2.47.48.86.84,1.16s.78.53,1.27.68c.49.15,1.02.23,1.59.24.76.02,1.46-.04,2.09-.18.63-.14,1.23-.35,1.8-.62.56-.28,1.1-.61,1.62-1,.52-.39,1.02-.84,1.52-1.34.04-2.02.06-3.03.1-5.05Z"/>
      <path class="cls-8" d="M601.78,828.16c.18-9.74.27-14.62.44-24.36,1.03.02,1.55.03,2.59.05.61.01.99.31,1.12.91.11,1,.16,1.5.27,2.51.92-1.09,1.95-1.98,3.09-2.67,1.14-.69,2.45-1.02,3.93-.99,1.64.03,2.97.5,3.98,1.43,1.01.93,1.73,2.18,2.16,3.74.37-.88.84-1.63,1.4-2.26.57-.63,1.2-1.15,1.9-1.56.7-.41,1.44-.7,2.22-.88.78-.18,1.58-.27,2.39-.26,1.29.02,2.43.24,3.44.66s1.85,1.03,2.54,1.82c.69.79,1.22,1.77,1.57,2.92.36,1.15.53,2.46.51,3.94-.08,6.21-.11,9.31-.19,15.51-1.74-.02-2.61-.03-4.35-.05.08-6.21.12-9.31.2-15.51.02-1.91-.38-3.36-1.2-4.36-.83-1-2.03-1.51-3.61-1.53-.71,0-1.38.1-2.03.34-.64.24-1.21.6-1.7,1.07-.49.47-.88,1.07-1.18,1.8-.29.72-.45,1.57-.46,2.53-.09,6.21-.14,9.31-.23,15.51-1.74-.03-2.61-.04-4.35-.07.1-6.21.15-9.31.24-15.51.03-1.96-.34-3.42-1.12-4.39s-1.92-1.47-3.44-1.5c-1.06-.02-2.05.25-2.97.81-.91.55-1.76,1.31-2.53,2.28-.13,7.26-.19,10.89-.32,18.16-1.74-.03-2.61-.05-4.35-.08Z"/>
      <path class="cls-8" d="M671.39,808.95c-.13.18-.26.31-.39.41-.13.1-.31.14-.53.14-.24,0-.51-.1-.8-.31-.29-.2-.65-.43-1.07-.67-.43-.24-.95-.47-1.57-.67s-1.38-.31-2.28-.32c-1.21,0-2.28.2-3.2.61s-1.7,1.03-2.33,1.82c-.63.8-1.1,1.76-1.43,2.9-.32,1.14-.49,2.41-.5,3.82-.01,1.48.15,2.79.48,3.94.33,1.15.8,2.12,1.42,2.9.62.78,1.36,1.38,2.24,1.8.88.42,1.87.63,2.97.64,1.05,0,1.92-.11,2.6-.36s1.25-.52,1.69-.82c.45-.3.82-.58,1.12-.82.3-.25.6-.37.89-.37.36,0,.63.14.82.41.48.63.72.94,1.2,1.57-.54.65-1.15,1.21-1.83,1.67-.68.46-1.42.84-2.2,1.15-.79.31-1.61.53-2.47.67-.86.14-1.73.2-2.62.2-1.54-.01-2.96-.3-4.28-.87-1.32-.57-2.45-1.4-3.42-2.47-.96-1.07-1.71-2.39-2.25-3.95-.54-1.56-.79-3.33-.78-5.32.02-1.81.29-3.49.81-5.02.52-1.53,1.28-2.86,2.26-3.96.99-1.11,2.19-1.97,3.62-2.58,1.43-.61,3.07-.91,4.93-.9,1.72.01,3.24.3,4.55.86,1.31.56,2.47,1.35,3.48,2.37-.46.61-.69.92-1.15,1.53Z"/>
      <path class="cls-8" d="M687.36,804.31c1.79,0,3.4.31,4.83.9,1.43.6,2.66,1.44,3.67,2.53,1.01,1.09,1.79,2.41,2.33,3.96.54,1.55.81,3.28.81,5.18,0,1.92-.27,3.66-.82,5.19-.54,1.54-1.33,2.85-2.35,3.94s-2.25,1.92-3.7,2.51c-1.44.58-3.06.87-4.86.87-1.81,0-3.44-.3-4.89-.9-1.45-.59-2.68-1.43-3.69-2.53-1.01-1.09-1.79-2.41-2.32-3.96-.53-1.54-.8-3.27-.79-5.2,0-1.91.29-3.63.84-5.18.55-1.54,1.33-2.86,2.35-3.95,1.02-1.09,2.25-1.92,3.7-2.51s3.07-.88,4.88-.87ZM687.29,826.06c2.43,0,4.24-.79,5.44-2.4,1.2-1.61,1.8-3.86,1.81-6.74,0-2.9-.59-5.16-1.78-6.79-1.19-1.62-2.99-2.44-5.41-2.44-1.23,0-2.3.2-3.21.61-.91.41-1.67,1.01-2.28,1.8-.61.78-1.07,1.75-1.37,2.89-.3,1.14-.46,2.44-.46,3.88-.01,2.89.58,5.14,1.78,6.75,1.2,1.62,3.03,2.43,5.49,2.44Z"/>
      <path class="cls-8" d="M704.45,829.09c0-9.75,0-14.62,0-24.37,1.03,0,1.55,0,2.59,0,.61,0,.99.3,1.14.89.13,1,.19,1.5.32,2.5.9-1.11,1.92-2.01,3.05-2.72,1.13-.71,2.43-1.06,3.91-1.07,1.64,0,2.98.45,4.01,1.36,1.03.91,1.77,2.14,2.22,3.7.35-.88.81-1.65,1.36-2.29.55-.64,1.18-1.17,1.87-1.59.69-.42,1.43-.73,2.21-.92.78-.19,1.57-.3,2.38-.3,1.29,0,2.44.19,3.45.6,1.01.4,1.87,1,2.57,1.78.71.78,1.25,1.74,1.62,2.89.38,1.14.57,2.45.58,3.93.04,6.21.05,9.31.09,15.51-1.74.01-2.61.01-4.35.02-.03-6.21-.05-9.31-.08-15.51,0-1.91-.44-3.35-1.28-4.33-.84-.98-2.06-1.47-3.64-1.46-.71,0-1.38.13-2.02.38-.64.25-1.19.62-1.68,1.1-.48.48-.86,1.09-1.14,1.82-.28.73-.42,1.58-.42,2.54.02,6.21.03,9.31.05,15.51-1.74,0-2.61,0-4.35.01-.02-6.21-.02-9.31-.04-15.51,0-1.96-.4-3.41-1.2-4.37-.79-.96-1.95-1.44-3.46-1.44-1.06,0-2.05.29-2.95.86-.9.57-1.73,1.34-2.49,2.32,0,7.26,0,10.9.01,18.16-1.74,0-2.61,0-4.35,0Z"/>
      <path class="cls-8" d="M748.36,808.33c1.02-1.27,2.21-2.3,3.55-3.08,1.35-.78,2.89-1.18,4.63-1.2,1.42-.01,2.7.24,3.85.77s2.13,1.31,2.95,2.35c.82,1.04,1.45,2.34,1.91,3.89.45,1.55.69,3.34.71,5.36.02,1.8-.2,3.47-.67,5.02-.47,1.55-1.15,2.9-2.06,4.04-.9,1.14-2.01,2.04-3.32,2.7-1.31.66-2.8,1-4.45,1.02-1.51.01-2.8-.23-3.88-.72-1.08-.5-2.04-1.19-2.87-2.08.03,4.31.05,6.47.08,10.78-1.74.01-2.61.02-4.35.03-.08-10.87-.15-21.74-.23-32.61,1.04,0,1.55-.01,2.59-.02.61,0,.99.29,1.14.88.16,1.15.25,1.73.41,2.88ZM748.69,823.05c.8,1.05,1.67,1.79,2.61,2.22.94.42,2,.63,3.16.62,2.3-.02,4.05-.85,5.27-2.48,1.21-1.63,1.8-3.95,1.77-6.94-.02-1.59-.17-2.95-.46-4.08-.29-1.14-.71-2.07-1.25-2.79-.54-.72-1.2-1.25-1.98-1.58-.78-.33-1.66-.49-2.64-.48-1.4.01-2.63.34-3.68.99-1.05.65-2.02,1.56-2.89,2.74.04,4.71.06,7.07.09,11.79Z"/>
      <path class="cls-8" d="M791.46,804.06c.15,9.74.23,14.62.38,24.36-1.03.02-1.54.02-2.57.04-.62,0-1.01-.28-1.18-.87-.15-1.05-.23-1.57-.38-2.62-1.05,1.19-2.24,2.15-3.55,2.88-1.32.73-2.83,1.11-4.55,1.13-1.34.02-2.53-.19-3.57-.62-1.03-.43-1.9-1.04-2.61-1.83-.71-.79-1.24-1.76-1.6-2.89-.36-1.13-.55-2.39-.57-3.77-.07-6.21-.11-9.32-.18-15.54,1.72-.02,2.58-.03,4.3-.05.08,6.21.12,9.32.19,15.54.02,1.84.47,3.27,1.33,4.26.86,1,2.17,1.49,3.91,1.46,1.28-.02,2.47-.33,3.57-.95,1.1-.62,2.11-1.46,3.03-2.53-.1-7.18-.16-10.76-.26-17.94,1.72-.03,2.58-.04,4.3-.06Z"/>
      <path class="cls-8" d="M806.24,828.56c-1.94.03-3.44-.48-4.51-1.53-1.06-1.06-1.61-2.6-1.64-4.62-.1-5.96-.15-8.95-.25-14.91-1.18.02-1.77.03-2.95.05-.26,0-.48-.07-.66-.22-.18-.15-.27-.38-.28-.71-.01-.68-.02-1.02-.03-1.71,1.6-.23,2.4-.34,4-.57.35-3.02.52-4.53.86-7.54.04-.24.15-.44.32-.6.17-.15.39-.23.66-.24.87-.01,1.3-.02,2.17-.04.06,3.36.09,5.04.15,8.39,2.83-.05,4.25-.08,7.08-.13.02,1.24.04,1.86.06,3.1-2.84.05-4.25.08-7.09.13.1,5.85.15,8.77.26,14.62.02,1.03.28,1.78.79,2.27.51.49,1.16.73,1.95.71.45,0,.84-.08,1.17-.2.33-.13.61-.26.85-.41.24-.15.44-.28.61-.41.17-.12.32-.19.45-.19.23,0,.43.13.61.4.52.81.78,1.21,1.3,2.02-.73.7-1.62,1.26-2.66,1.67-1.05.41-2.13.63-3.24.65Z"/>
      <path class="cls-8" d="M815.05,807.08c1.33-1.33,2.77-2.32,4.32-3,1.55-.67,3.28-1.03,5.18-1.07,1.37-.03,2.59.17,3.66.59,1.07.43,1.98,1.03,2.73,1.82.74.79,1.31,1.74,1.71,2.87.4,1.13.61,2.38.64,3.74.14,6.23.21,9.35.35,15.58-.77.02-1.15.03-1.92.04-.42,0-.75-.05-.98-.18-.23-.13-.41-.4-.55-.79-.21-.92-.32-1.38-.54-2.3-.63.61-1.25,1.15-1.86,1.62-.61.47-1.24.87-1.92,1.2-.67.33-1.39.58-2.16.77-.77.18-1.62.29-2.56.31-.96.02-1.86-.09-2.7-.34-.85-.25-1.59-.63-2.22-1.15-.63-.52-1.14-1.18-1.52-1.98-.38-.8-.58-1.76-.6-2.86-.02-.96.23-1.89.75-2.79.52-.9,1.36-1.71,2.55-2.42,1.18-.71,2.73-1.31,4.64-1.79,1.91-.48,4.26-.78,7.06-.91-.02-.76-.03-1.14-.04-1.9-.04-1.89-.48-3.31-1.33-4.27s-2.06-1.41-3.64-1.38c-1.06.02-1.95.17-2.66.45-.71.28-1.33.59-1.85.93-.52.34-.96.65-1.34.92-.37.27-.75.41-1.12.42-.29,0-.54-.07-.75-.21-.21-.15-.39-.33-.54-.55-.32-.54-.48-.81-.8-1.36ZM829.18,816.75c-1.99.11-3.67.3-5.07.58-1.39.28-2.53.63-3.4,1.04-.87.42-1.5.9-1.89,1.46-.39.55-.57,1.17-.56,1.84.01.64.13,1.19.35,1.65.22.46.51.84.88,1.13s.8.5,1.3.62c.5.13,1.03.18,1.59.17.76-.02,1.45-.11,2.08-.27.63-.17,1.22-.4,1.77-.7.55-.3,1.08-.66,1.58-1.07.5-.41.99-.88,1.46-1.4-.04-2.02-.07-3.03-.11-5.05Z"/>
      <path class="cls-8" d="M847.47,827.67c-1.94.05-3.45-.45-4.52-1.5-1.07-1.05-1.63-2.58-1.68-4.6-.14-5.96-.22-8.95-.36-14.91-1.18.03-1.77.04-2.95.07-.26,0-.48-.06-.66-.21-.18-.15-.27-.38-.28-.7-.02-.68-.02-1.02-.04-1.71,1.6-.24,2.4-.36,4-.6.32-3.02.49-4.53.81-7.55.04-.24.15-.44.31-.6.17-.16.38-.24.66-.24.87-.02,1.3-.03,2.17-.05.08,3.36.13,5.04.21,8.39,2.83-.07,4.25-.11,7.08-.18.03,1.24.05,1.86.08,3.1-2.83.07-4.25.11-7.09.18.15,5.85.22,8.77.36,14.62.03,1.03.3,1.78.81,2.26.51.48,1.17.72,1.96.7.45-.01.84-.08,1.17-.21.33-.13.61-.27.85-.42.24-.15.44-.29.61-.41s.32-.19.44-.19c.23,0,.43.13.62.39.53.8.79,1.21,1.31,2.01-.73.71-1.61,1.27-2.65,1.69-1.04.42-2.12.64-3.24.67Z"/>
      <path class="cls-8" d="M866.85,802c1.79-.05,3.41.2,4.86.75s2.7,1.35,3.75,2.41c1.05,1.06,1.87,2.35,2.46,3.88.59,1.53.91,3.25.97,5.16.06,1.92-.16,3.66-.65,5.22-.49,1.55-1.23,2.89-2.22,4.01-.99,1.12-2.19,2-3.61,2.62-1.42.63-3.03.97-4.83,1.02-1.81.05-3.45-.19-4.92-.74-1.46-.54-2.72-1.35-3.77-2.41-1.05-1.06-1.86-2.36-2.45-3.88-.58-1.52-.9-3.25-.95-5.17-.05-1.91.17-3.64.67-5.2.5-1.56,1.24-2.9,2.23-4.02.99-1.12,2.19-1.99,3.62-2.63,1.43-.63,3.04-.98,4.85-1.03ZM867.48,823.74c2.43-.07,4.21-.93,5.36-2.58,1.15-1.65,1.68-3.91,1.59-6.8-.09-2.9-.75-5.14-1.99-6.73-1.24-1.58-3.07-2.34-5.49-2.27-1.23.04-2.29.27-3.19.72-.9.44-1.64,1.07-2.22,1.87-.58.8-1.01,1.78-1.28,2.94-.27,1.15-.38,2.45-.34,3.9.08,2.89.74,5.12,1.99,6.69,1.25,1.58,3.1,2.33,5.56,2.26Z"/>
      <path class="cls-8" d="M888.2,806.62c.72-1.69,1.63-3.03,2.73-4,1.1-.97,2.46-1.49,4.09-1.54.52-.02,1.01.02,1.49.12.48.1.91.26,1.29.49-.08,1.28-.12,1.92-.21,3.21-.08.4-.32.61-.7.63-.23,0-.56-.03-1-.11-.44-.08-.93-.11-1.48-.09-.77.03-1.46.16-2.06.41-.6.25-1.13.59-1.59,1.05-.46.46-.87,1.02-1.23,1.68-.36.66-.68,1.41-.96,2.26.2,6.15.3,9.23.5,15.39-1.74.06-2.61.08-4.34.14-.31-9.74-.46-14.61-.77-24.35.99-.03,1.48-.05,2.47-.08.47-.02.79.06.98.23s.31.47.39.9c.16,1.48.25,2.22.41,3.69Z"/>
      <path class="cls-8" d="M906.73,793.45c.02.42-.06.81-.21,1.17-.16.37-.37.7-.64.99-.27.29-.59.52-.97.7-.37.17-.77.27-1.19.28-.42.01-.81-.05-1.18-.2-.37-.15-.69-.36-.98-.63-.28-.27-.51-.58-.68-.94-.17-.35-.27-.74-.28-1.16-.01-.42.05-.82.2-1.2.15-.38.35-.72.62-1.01.26-.29.57-.52.93-.69.36-.17.74-.27,1.16-.28.42-.01.82.05,1.2.2.38.15.72.36,1.01.63.29.27.53.59.71.96s.28.76.3,1.18ZM906.09,801.13c.35,9.74.52,14.61.87,24.35-1.73.06-2.59.09-4.32.15-.34-9.74-.51-14.61-.85-24.35,1.72-.06,2.58-.09,4.3-.15Z"/>
      <path class="cls-8" d="M912.64,804.33c1.31-1.35,2.73-2.37,4.27-3.07,1.54-.7,3.26-1.09,5.16-1.16,1.37-.05,2.59.12,3.68.53,1.08.41,2,1,2.76,1.77.76.77,1.34,1.72,1.76,2.84s.65,2.36.71,3.73c.25,6.23.37,9.34.62,15.57-.77.03-1.15.05-1.92.08-.42.02-.75-.04-.98-.17-.23-.13-.42-.39-.57-.78-.23-.92-.35-1.37-.58-2.29-.62.62-1.23,1.17-1.83,1.65-.6.48-1.23.89-1.9,1.23-.67.34-1.38.61-2.14.8-.76.2-1.61.31-2.55.35-.96.04-1.86-.06-2.71-.29-.85-.23-1.6-.6-2.24-1.11-.64-.51-1.16-1.16-1.55-1.95-.39-.8-.61-1.75-.65-2.85-.04-.96.2-1.9.7-2.81.5-.91,1.34-1.73,2.51-2.46,1.17-.73,2.71-1.36,4.61-1.87,1.9-.51,4.25-.86,7.04-1.03-.03-.76-.04-1.14-.07-1.9-.07-1.89-.54-3.3-1.4-4.24-.86-.94-2.08-1.38-3.66-1.31-1.06.04-1.95.21-2.66.5-.71.29-1.32.61-1.83.96-.51.35-.95.66-1.32.94-.37.28-.74.43-1.11.44-.29.01-.54-.06-.76-.2-.22-.14-.4-.33-.55-.54-.33-.54-.5-.8-.83-1.34ZM926.94,813.75c-1.98.14-3.67.36-5.06.67-1.39.3-2.51.67-3.38,1.1-.87.43-1.49.93-1.86,1.49-.38.56-.55,1.18-.53,1.85.02.64.15,1.19.38,1.65.23.46.53.83.9,1.11.38.28.81.48,1.31.6.5.12,1.03.17,1.6.14.76-.03,1.45-.13,2.08-.31.62-.18,1.21-.42,1.76-.73.55-.31,1.07-.68,1.56-1.1.49-.42.97-.9,1.44-1.43-.08-2.02-.12-3.03-.2-5.05Z"/>
      <path class="cls-8" d="M938.17,824.27c-.4-9.74-.6-14.61-1-24.34,1.03-.04,1.55-.06,2.59-.11.61-.03,1,.25,1.17.84.17.99.25,1.49.42,2.49.86-1.14,1.83-2.09,2.93-2.84,1.1-.75,2.39-1.16,3.87-1.23,1.64-.07,3,.33,4.06,1.2,1.06.87,1.85,2.07,2.37,3.6.32-.9.74-1.68,1.26-2.34.53-.67,1.13-1.22,1.8-1.67.67-.45,1.4-.78,2.17-1.01.77-.23,1.56-.36,2.37-.4,1.29-.06,2.45.09,3.47.45,1.03.36,1.91.92,2.64,1.67s1.32,1.69,1.74,2.82c.42,1.13.67,2.43.74,3.9.29,6.2.44,9.3.73,15.5-1.74.08-2.61.12-4.34.2-.29-6.2-.43-9.3-.72-15.5-.09-1.91-.58-3.33-1.46-4.28-.88-.95-2.12-1.38-3.69-1.31-.71.03-1.38.19-2,.46-.63.28-1.17.67-1.63,1.17s-.82,1.12-1.07,1.87c-.25.74-.35,1.59-.31,2.55.28,6.2.41,9.3.69,15.5-1.74.08-2.61.12-4.34.19-.27-6.2-.41-9.3-.68-15.5-.09-1.95-.55-3.39-1.38-4.32-.83-.93-2-1.36-3.52-1.29-1.06.05-2.03.37-2.91.98-.88.61-1.68,1.42-2.39,2.42.3,7.26.46,10.89.76,18.14-1.74.07-2.61.11-4.34.18Z"/>
    </g>
  </g>
  <g>
    <path class="cls-8" d="M1063.59,788.46c1.28-1.39,2.69-2.47,4.23-3.24,1.54-.76,3.28-1.22,5.21-1.38,1.4-.11,2.66,0,3.78.36,1.13.35,2.1.9,2.91,1.63.82.73,1.47,1.65,1.96,2.75.49,1.1.8,2.33.94,3.68.62,6.21.94,9.31,1.58,15.51-.79.07-1.19.11-1.98.18-.44.04-.78,0-1.03-.11-.25-.12-.46-.37-.63-.75-.29-.9-.44-1.35-.73-2.26-.61.65-1.21,1.23-1.8,1.74-.59.51-1.22.95-1.9,1.32-.67.37-1.4.67-2.18.9-.78.23-1.66.38-2.63.46-.99.08-1.94.02-2.83-.18-.9-.2-1.69-.54-2.39-1.02-.69-.48-1.26-1.11-1.71-1.89-.45-.78-.72-1.72-.81-2.83-.08-.96.12-1.9.6-2.83.48-.93,1.3-1.78,2.47-2.56,1.17-.78,2.73-1.47,4.66-2.06,1.94-.6,4.33-1.05,7.19-1.36-.07-.76-.11-1.14-.18-1.89-.18-1.88-.74-3.27-1.67-4.17-.93-.89-2.2-1.28-3.81-1.14-1.09.09-1.98.29-2.69.61-.71.32-1.32.67-1.83,1.04-.51.37-.94.7-1.31.99s-.74.45-1.12.48c-.3.02-.56-.03-.79-.17-.23-.14-.42-.31-.59-.52-.36-.52-.54-.78-.9-1.31ZM1078.75,797.25c-2.04.24-3.76.54-5.17.9-1.42.37-2.56.78-3.43,1.25-.87.47-1.49.99-1.85,1.57-.36.57-.51,1.2-.45,1.87.06.64.21,1.18.47,1.63.26.45.59.81.99,1.07.4.27.87.45,1.39.54.52.1,1.08.12,1.67.07.79-.06,1.5-.2,2.14-.4.64-.2,1.23-.47,1.78-.81.55-.33,1.07-.72,1.55-1.17.49-.44.96-.94,1.4-1.5-.2-2.01-.3-3.02-.49-5.03Z"/>
    <path class="cls-8" d="M1091,807.14c-1.07-9.69-1.59-14.54-2.6-24.24,1.05-.1,1.58-.15,2.62-.26.62-.06,1.04.19,1.25.77.23.98.35,1.47.59,2.46.8-1.19,1.73-2.2,2.8-3.02,1.07-.82,2.35-1.31,3.85-1.47,1.66-.18,3.07.13,4.21.92,1.14.79,2.04,1.93,2.68,3.43.25-.92.62-1.73,1.11-2.43.48-.7,1.05-1.3,1.7-1.79.65-.5,1.36-.89,2.12-1.17.77-.28,1.55-.48,2.37-.58,1.3-.16,2.48-.1,3.55.18,1.07.28,2.01.76,2.82,1.45.81.69,1.48,1.58,2.01,2.67.53,1.09.9,2.36,1.1,3.82.85,6.15,1.28,9.22,2.15,15.37-1.78.23-2.67.35-4.46.57-.85-6.15-1.27-9.23-2.09-15.38-.25-1.89-.87-3.27-1.85-4.15-.98-.87-2.26-1.21-3.86-1.02-.72.09-1.38.29-2,.61-.61.32-1.14.75-1.57,1.29-.43.54-.74,1.18-.94,1.94-.2.76-.24,1.61-.12,2.57.76,6.16,1.15,9.24,1.94,15.4-1.79.21-2.68.31-4.47.51-.77-6.16-1.14-9.24-1.88-15.41-.23-1.94-.81-3.35-1.72-4.21-.91-.87-2.14-1.22-3.68-1.06-1.08.12-2.04.5-2.9,1.16s-1.62,1.52-2.28,2.57c.79,7.22,1.2,10.83,2.02,18.06-1.79.18-2.69.27-4.49.45Z"/>
    <path class="cls-8" d="M1128.43,781.72c1.18-1.47,2.51-2.63,3.99-3.49,1.48-.85,3.17-1.42,5.08-1.69,1.37-.2,2.63-.16,3.76.13,1.13.28,2.13.77,2.98,1.45.85.68,1.55,1.56,2.1,2.62.55,1.07.94,2.27,1.16,3.62.99,6.16,1.49,9.23,2.51,15.39-.78.12-1.17.18-1.96.3-.43.07-.77.05-1.02-.05-.25-.1-.48-.34-.68-.71-.34-.88-.52-1.32-.86-2.21-.56.69-1.12,1.3-1.68,1.84-.56.54-1.15,1.02-1.8,1.43-.64.41-1.35.75-2.11,1.03s-1.62.49-2.58.62c-.98.14-1.92.14-2.82,0-.9-.14-1.71-.43-2.42-.87-.71-.44-1.32-1.03-1.81-1.78-.49-.75-.81-1.67-.97-2.77-.14-.95,0-1.91.42-2.86.41-.95,1.18-1.85,2.29-2.71,1.11-.85,2.61-1.63,4.49-2.34,1.88-.71,4.22-1.31,7.03-1.79-.12-.75-.18-1.13-.29-1.88-.29-1.87-.93-3.22-1.9-4.06-.98-.84-2.25-1.14-3.84-.91-1.07.15-1.95.41-2.63.78-.68.37-1.27.75-1.75,1.15-.48.4-.89.76-1.24,1.07-.34.32-.7.5-1.08.55-.29.04-.56,0-.79-.12-.23-.12-.44-.28-.62-.49-.39-.5-.59-.75-.97-1.25ZM1143.96,789.57c-2,.36-3.69.77-5.07,1.22-1.38.45-2.49.94-3.32,1.46-.83.52-1.41,1.08-1.74,1.68-.32.6-.43,1.23-.33,1.89.1.63.28,1.17.57,1.6.28.43.63.77,1.05,1.01.42.24.88.39,1.41.46.52.06,1.07.06,1.65-.03.77-.11,1.47-.29,2.09-.53.62-.24,1.19-.55,1.71-.92.52-.37,1.01-.79,1.47-1.26.46-.47.89-1,1.3-1.58-.32-2-.48-2.99-.79-4.99Z"/>
    <path class="cls-8" d="M1157.29,777.49c.43-.67.91-1.29,1.42-1.87.51-.57,1.08-1.09,1.69-1.54.61-.45,1.27-.83,1.98-1.14.71-.31,1.5-.54,2.37-.69,1.33-.23,2.54-.21,3.64.04,1.1.26,2.06.72,2.89,1.39.83.67,1.52,1.54,2.08,2.6.56,1.05.97,2.26,1.22,3.62,1.14,6.1,1.72,9.15,2.89,15.25-1.76.32-2.64.47-4.4.78-1.14-6.1-1.71-9.16-2.82-15.26-.33-1.81-1.01-3.15-2.04-4-1.03-.85-2.4-1.13-4.12-.84-1.27.22-2.41.72-3.41,1.5-1,.79-1.88,1.77-2.64,2.95,1.21,7.08,1.82,10.61,3.06,17.69-1.77.29-2.65.43-4.42.72-1.65-9.61-2.46-14.42-4.04-24.04,1.03-.17,1.55-.25,2.58-.42.61-.1,1.04.13,1.28.69.31,1.02.47,1.53.78,2.55Z"/>
    <path class="cls-8" d="M1191.48,792.92c-1.96.38-3.57.14-4.83-.71-1.26-.85-2.09-2.27-2.48-4.26-1.15-5.85-1.73-8.78-2.86-14.64-1.17.22-1.76.33-2.93.55-.26.05-.49.01-.69-.1-.2-.12-.34-.33-.4-.65-.13-.67-.19-1.01-.32-1.68,1.56-.49,2.33-.74,3.88-1.24-.18-3.03-.26-4.55-.44-7.58,0-.25.07-.46.21-.64.14-.18.34-.3.61-.35.85-.16,1.28-.24,2.14-.41.64,3.3.96,4.94,1.61,8.24,2.8-.54,4.2-.82,7-1.38.25,1.22.37,1.82.62,3.04-2.81.56-4.21.84-7.02,1.38,1.13,5.74,1.7,8.61,2.86,14.35.2,1.01.61,1.71,1.21,2.09.6.39,1.3.51,2.1.35.45-.09.84-.22,1.15-.41.31-.18.57-.37.78-.56.22-.19.4-.36.54-.51.15-.15.28-.24.41-.27.23-.05.46.05.69.28.67.7,1.01,1.05,1.68,1.75-.6.83-1.4,1.54-2.37,2.13-.98.59-2.03,1-3.16,1.22Z"/>
  </g>
  <g>
    <path class="cls-8" d="M230.49,768.98c1.76.34,3.28.93,4.58,1.78,1.3.85,2.35,1.9,3.15,3.16.8,1.26,1.33,2.7,1.59,4.32.25,1.62.21,3.37-.14,5.25-.35,1.89-.94,3.55-1.76,4.97-.82,1.42-1.85,2.57-3.07,3.45-1.22.88-2.61,1.48-4.16,1.79-1.55.31-3.23.29-5.02-.06-1.81-.35-3.38-.95-4.71-1.81-1.33-.86-2.39-1.92-3.18-3.2-.79-1.27-1.3-2.72-1.52-4.34s-.14-3.37.25-5.26c.39-1.87,1.01-3.51,1.85-4.92.84-1.41,1.87-2.55,3.08-3.42,1.21-.87,2.58-1.46,4.11-1.76,1.53-.3,3.18-.29,4.95.05ZM226.31,790.35c2.42.46,4.38.01,5.88-1.35,1.5-1.36,2.51-3.46,3.05-6.3.54-2.86.37-5.19-.51-7-.88-1.81-2.5-2.94-4.88-3.4-1.21-.23-2.3-.23-3.27,0-.98.23-1.84.68-2.59,1.33-.75.66-1.39,1.52-1.91,2.58-.52,1.07-.92,2.31-1.21,3.72-.57,2.83-.43,5.16.45,6.97.87,1.82,2.54,2.97,4.99,3.44Z"/>
    <path class="cls-8" d="M242.9,796.46c1.76-9.6,2.63-14.4,4.33-24.01,1.02.18,1.53.27,2.55.44.6.1.93.46.97,1.07-.05,1.01-.07,1.51-.12,2.52,1.08-.94,2.24-1.66,3.48-2.17,1.23-.51,2.58-.64,4.05-.4,1.62.27,2.87.94,3.74,2,.87,1.07,1.4,2.4,1.6,4.01.5-.82,1.07-1.5,1.72-2.04.65-.55,1.36-.97,2.11-1.28.75-.31,1.53-.49,2.34-.56.81-.07,1.61-.05,2.41.07,1.28.19,2.39.57,3.33,1.12.94.55,1.7,1.27,2.28,2.15.58.88.98,1.91,1.18,3.1.2,1.19.2,2.52-.02,3.98-.92,6.15-1.38,9.22-2.32,15.36-1.76-.25-2.64-.38-4.4-.64.96-6.14,1.44-9.21,2.38-15.36.29-1.89.09-3.38-.6-4.48-.69-1.1-1.82-1.77-3.39-2.01-.71-.11-1.39-.09-2.07.06-.67.15-1.29.42-1.84.82-.56.4-1.04.94-1.43,1.62-.4.68-.67,1.49-.83,2.44-.99,6.13-1.5,9.2-2.52,15.33-1.75-.28-2.63-.42-4.38-.7,1.04-6.13,1.56-9.19,2.58-15.32.32-1.93.16-3.44-.46-4.51-.63-1.08-1.69-1.74-3.19-1.99-1.05-.18-2.08-.06-3.07.35-.99.41-1.95,1.03-2.87,1.87-1.25,7.16-1.89,10.75-3.17,17.91-1.75-.3-2.62-.45-4.36-.76Z"/>
    <path class="cls-8" d="M290.23,782.68c.61-.52,1.25-.98,1.91-1.37.66-.4,1.35-.73,2.06-.98.71-.25,1.46-.43,2.23-.51.77-.09,1.59-.08,2.46.03,1.34.17,2.49.53,3.46,1.1.97.56,1.75,1.29,2.34,2.18s.99,1.92,1.21,3.09c.22,1.17.24,2.45.07,3.82-.77,6.17-1.16,9.25-1.95,15.42-1.77-.21-2.66-.32-4.43-.53.82-6.16,1.22-9.24,2.01-15.41.23-1.83-.01-3.31-.73-4.42-.72-1.12-1.94-1.78-3.67-2-1.28-.16-2.51-.01-3.69.45-1.19.46-2.32,1.14-3.4,2.05-.98,7.12-1.49,10.68-2.5,17.8-1.76-.24-2.65-.36-4.41-.6,1.42-9.66,2.11-14.49,3.47-24.15,1.03.14,1.55.21,2.58.35.61.08.95.43,1.01,1.03,0,1.07-.01,1.6-.02,2.67Z"/>
    <path class="cls-8" d="M331.52,804.92c-.61.59-1.33,1.08-2.14,1.48-.81.4-1.67.71-2.57.93-.9.22-1.83.36-2.77.42-.94.06-1.87.04-2.78-.05-1.74-.18-3.31-.63-4.71-1.35-1.4-.72-2.56-1.69-3.49-2.9-.93-1.21-1.59-2.66-1.99-4.33-.4-1.68-.47-3.56-.21-5.65.2-1.69.66-3.24,1.36-4.65.7-1.41,1.61-2.59,2.72-3.56,1.11-.97,2.42-1.68,3.91-2.14,1.49-.46,3.13-.6,4.91-.42,1.47.15,2.81.53,4.02,1.14,1.21.61,2.22,1.42,3.05,2.43.83,1.01,1.43,2.21,1.82,3.61.39,1.4.5,2.96.32,4.69-.07.67-.19,1.11-.36,1.32-.17.21-.46.3-.87.26-6.67-.63-10-.97-16.64-1.7-.13,1.54-.07,2.89.18,4.07.25,1.17.68,2.18,1.28,3.01.6.83,1.36,1.49,2.28,1.96.91.48,1.97.77,3.15.9,1.1.11,2.07.09,2.9-.08.83-.17,1.55-.37,2.16-.6.61-.23,1.12-.45,1.53-.66.41-.21.76-.3,1.04-.27.36.03.63.2.8.49.43.67.65,1,1.08,1.67ZM329.15,793.2c.1-.99.05-1.91-.15-2.76-.2-.85-.54-1.6-1.03-2.25-.48-.65-1.1-1.18-1.84-1.59-.75-.41-1.61-.66-2.6-.76-2.08-.21-3.79.21-5.13,1.26-1.35,1.06-2.29,2.62-2.82,4.7,5.42.59,8.14.87,13.58,1.4Z"/>
    <path class="cls-8" d="M353.42,789.75c-.23.34-.54.49-.95.46-.25-.02-.52-.13-.81-.33-.3-.2-.66-.43-1.09-.68-.43-.25-.95-.49-1.56-.72-.6-.23-1.33-.39-2.18-.45-.73-.06-1.41-.02-2.01.11-.6.14-1.13.34-1.57.63-.45.29-.8.63-1.06,1.03-.26.41-.41.86-.46,1.35-.06.62.08,1.16.41,1.61.33.45.79.85,1.37,1.2.58.35,1.25.68,2,.97.75.3,1.52.61,2.31.94.79.33,1.56.68,2.31,1.06.75.38,1.4.83,1.97,1.36.57.53,1.01,1.15,1.33,1.87.31.72.43,1.57.35,2.55-.09,1.12-.39,2.14-.88,3.06-.5.92-1.18,1.7-2.06,2.33-.88.63-1.92,1.1-3.14,1.41-1.22.31-2.6.4-4.15.27-1.76-.15-3.33-.56-4.71-1.23-1.37-.68-2.52-1.49-3.42-2.44.48-.61.72-.92,1.21-1.54.15-.2.33-.34.52-.44.19-.1.43-.13.71-.11.3.03.6.16.91.42.31.25.69.54,1.13.85.45.31,1,.61,1.66.89.66.28,1.49.46,2.51.55.86.07,1.63.02,2.3-.14.67-.16,1.23-.41,1.7-.75.46-.34.82-.73,1.07-1.2.25-.46.4-.97.45-1.51.06-.67-.08-1.24-.41-1.71-.33-.47-.79-.88-1.38-1.24-.58-.36-1.26-.69-2.02-.98-.76-.3-1.54-.61-2.33-.93-.79-.32-1.56-.68-2.31-1.08-.75-.39-1.41-.87-1.97-1.42-.56-.55-.99-1.2-1.29-1.96-.3-.76-.4-1.66-.3-2.7.09-.93.37-1.8.84-2.62.47-.82,1.11-1.52,1.92-2.1.81-.58,1.78-1.02,2.9-1.31,1.13-.29,2.39-.38,3.79-.27,1.63.13,3.07.5,4.32,1.1,1.25.6,2.32,1.38,3.2,2.33-.44.6-.66.89-1.11,1.49Z"/>
  </g>
</svg>
